# xmcd
# 
# Track frame offsets:
#     150
#     11556
#     24337
#     37670
#     50271
#     62967
#     77719
#     91406
#     107658
#     120412
#     133372
#     145069
#     157015
#     168490
#     183475
#     194258
#     207788
#     220649
#     232513
#     240978
# 
# Disc length: 3404
# 
# Revision: 2
# Processed by: cddbd v1.5.2PL0 Copyright (c) Steve Scherf et al.
# Submitted via: BonkEnc v1.0.8
# 
DISCID=fd0d4a14
DTITLE=200 Blues Songs - Goin' Mad Blues [CD 7)
DYEAR=0
DGENRE=Blues
TTITLE0=Robert Johnson - Cross Road Blues
TTITLE1=Big Joe Williams - Please Don't Go
TTITLE2=Blind Willie McTell - Lord Have Mercy If You Please
TTITLE3=Blind Boy Fuller and Sonny Terry - Precious Lord
TTITLE4=Lightnin' Hopkins - Picture On The Wall
TTITLE5=Big Bill Broonzy - Southern Flood Blues
TTITLE6=Big Joe Turner - I Got A Gal (For Every Day In The Week)
TTITLE7=Bessie Smith - Beale Street Mama
TTITLE8=T-Bone Walker - Don't Leave Me Baby
TTITLE9=Kokomo Arnold - Neck Bone Blues
TTITLE10=Bukka White - Aberdeen Mississippi Blues
TTITLE11=Memphis Minnie - Looking The World Over
TTITLE12=John Lee 'Sonny Boy' Williamson - Black Panther Blues
TTITLE13=Hot Lips Page - Uncle Sam's Blues
TTITLE14=Sleepy John Estes - Time Is Drawing Near
TTITLE15=Arthur 'Big Boy' Crudup - Boy Friend Blues
TTITLE16=Blind Boy Fuller - I'm A Black Woman's Man
TTITLE17=Blind John Davis - Rockin' Chair Boogie
TTITLE18=Leadbelly - On Monday
TTITLE19=Jimmy Yancey - How Long Blues
EXTD=
EXTT0=
EXTT1=
EXTT2=
EXTT3=
EXTT4=
EXTT5=
EXTT6=
EXTT7=
EXTT8=
EXTT9=
EXTT10=
EXTT11=
EXTT12=
EXTT13=
EXTT14=
EXTT15=
EXTT16=
EXTT17=
EXTT18=
EXTT19=
PLAYORDER=
